<?xml version="1.0" encoding="UTF-8" standalone="no"?>
<!-- Created with Inkscape (http://www.inkscape.org/) -->

<svg
   width="154.10744mm"
   height="120.06129mm"
   viewBox="0 0 154.10744 120.06129"
   version="1.1"
   id="svg1"
   xml:space="preserve"
   inkscape:version="1.4 (e7c3feb100, 2024-10-09)"
   sodipodi:docname="f1_cloud_logo.svg"
   xmlns:inkscape="http://www.inkscape.org/namespaces/inkscape"
   xmlns:sodipodi="http://sodipodi.sourceforge.net/DTD/sodipodi-0.dtd"
   xmlns:xlink="http://www.w3.org/1999/xlink"
   xmlns="http://www.w3.org/2000/svg"
   xmlns:svg="http://www.w3.org/2000/svg"><sodipodi:namedview
     id="namedview1"
     pagecolor="#ffffff"
     bordercolor="#000000"
     borderopacity="0.25"
     inkscape:showpageshadow="2"
     inkscape:pageopacity="0.0"
     inkscape:pagecheckerboard="0"
     inkscape:deskcolor="#d1d1d1"
     inkscape:document-units="mm"
     inkscape:zoom="1.5981902"
     inkscape:cx="215.24346"
     inkscape:cy="361.34622"
     inkscape:window-width="1904"
     inkscape:window-height="1030"
     inkscape:window-x="0"
     inkscape:window-y="0"
     inkscape:window-maximized="1"
     inkscape:current-layer="layer1" /><defs
     id="defs1"><linearGradient
       id="linearGradient42"
       inkscape:collect="always"><stop
         style="stop-color:#000000;stop-opacity:1;"
         offset="0"
         id="stop42" /><stop
         style="stop-color:#000000;stop-opacity:0;"
         offset="1"
         id="stop43" /></linearGradient><linearGradient
       id="linearGradient35"
       inkscape:collect="always"><stop
         style="stop-color:#000000;stop-opacity:1;"
         offset="0"
         id="stop35" /><stop
         style="stop-color:#000000;stop-opacity:0;"
         offset="1"
         id="stop36" /></linearGradient><linearGradient
       id="linearGradient31"
       inkscape:collect="always"><stop
         style="stop-color:#000000;stop-opacity:1;"
         offset="0"
         id="stop31" /><stop
         style="stop-color:#000000;stop-opacity:0;"
         offset="1"
         id="stop32" /></linearGradient><linearGradient
       id="linearGradient25"
       inkscape:collect="always"><stop
         style="stop-color:#ff0000;stop-opacity:1;"
         offset="0"
         id="stop26" /><stop
         style="stop-color:#ff0000;stop-opacity:0;"
         offset="1"
         id="stop27" /></linearGradient><linearGradient
       id="linearGradient15"
       inkscape:collect="always"><stop
         style="stop-color:#ff0000;stop-opacity:1;"
         offset="0"
         id="stop15" /><stop
         style="stop-color:#ff0000;stop-opacity:0;"
         offset="1"
         id="stop16" /></linearGradient><radialGradient
       id="def1"
       cx="0"
       cy="0"
       r="1"
       gradientUnits="userSpaceOnUse"
       gradientTransform="matrix(-567.95177,33.193704,-20.073846,588.28057,123.63134,817.32365)"><stop
         offset="0.78"
         stop-color="#FFFFFF"
         stop-opacity="0.00"
         id="stop1" /><stop
         offset="1.00"
         stop-color="#000000"
         stop-opacity="0.50"
         id="stop2" /></radialGradient><radialGradient
       id="def2"
       cx="0"
       cy="0"
       r="1"
       gradientUnits="userSpaceOnUse"
       gradientTransform="matrix(-824.05464,293.66761,-73.778896,893.6089,343.58115,371.9369)"><stop
         offset="0.03"
         stop-color="#FFFFFF"
         stop-opacity="0.95"
         id="stop3" /><stop
         offset="0.15"
         stop-color="#E6E6E6"
         stop-opacity="0.00"
         id="stop4" /></radialGradient><linearGradient
       id="def3"
       x1="-0.69"
       y1="0.2"
       x2="0.80000001"
       y2="0.2"
       gradientUnits="userSpaceOnUse"
       gradientTransform="matrix(-495.8604,176.70924,126.96596,356.27677,43.897602,593.17731)"><stop
         offset="0.00"
         stop-color="#000000"
         id="stop5" /><stop
         offset="0.49"
         stop-color="#4C4C4C"
         id="stop6" /><stop
         offset="1.00"
         stop-color="#000000"
         id="stop7" /></linearGradient><linearGradient
       id="def4"
       x1="489.82999"
       y1="302.45999"
       x2="386.97"
       y2="329.76001"
       gradientUnits="userSpaceOnUse"
       gradientTransform="matrix(-1.8923298,0.67436756,0.67434299,1.8922609,474.57906,87.42016)"><stop
         offset="0.35"
         stop-color="#AAAAAA"
         id="stop8" /><stop
         offset="0.98"
         stop-color="#004080"
         id="stop9" /></linearGradient><linearGradient
       inkscape:collect="always"
       xlink:href="#linearGradient25"
       id="linearGradient27"
       x1="84.183403"
       y1="147.41399"
       x2="117.62487"
       y2="147.41399"
       gradientUnits="userSpaceOnUse"
       gradientTransform="translate(34.017562,48.839971)" /><linearGradient
       inkscape:collect="always"
       xlink:href="#linearGradient15"
       id="linearGradient28"
       x1="84.125854"
       y1="143.47836"
       x2="117.56733"
       y2="143.47836"
       gradientUnits="userSpaceOnUse"
       gradientTransform="translate(34.017562,48.839971)" /><linearGradient
       inkscape:collect="always"
       xlink:href="#linearGradient15"
       id="linearGradient29"
       x1="83.877518"
       y1="139.42235"
       x2="117.31899"
       y2="139.42235"
       gradientUnits="userSpaceOnUse"
       gradientTransform="translate(34.017562,48.839971)" /><linearGradient
       inkscape:collect="always"
       xlink:href="#linearGradient25"
       id="linearGradient30"
       gradientUnits="userSpaceOnUse"
       x1="84.183403"
       y1="147.41399"
       x2="117.62487"
       y2="147.41399"
       gradientTransform="translate(34.017562,48.839971)" /><linearGradient
       inkscape:collect="always"
       xlink:href="#linearGradient31"
       id="linearGradient32"
       x1="55.545223"
       y1="97.166298"
       x2="73.95224"
       y2="97.166298"
       gradientUnits="userSpaceOnUse"
       gradientTransform="translate(35.230992,60.072675)" /><linearGradient
       inkscape:collect="always"
       xlink:href="#linearGradient35"
       id="linearGradient36"
       x1="63.81295"
       y1="111.57643"
       x2="81.194588"
       y2="111.57643"
       gradientUnits="userSpaceOnUse"
       gradientTransform="translate(35.230992,60.072675)" /><linearGradient
       inkscape:collect="always"
       xlink:href="#linearGradient35"
       id="linearGradient37"
       x1="58.710526"
       y1="104.64435"
       x2="76.092163"
       y2="104.64435"
       gradientUnits="userSpaceOnUse"
       gradientTransform="translate(35.230992,60.072675)" /><linearGradient
       inkscape:collect="always"
       xlink:href="#linearGradient42"
       id="linearGradient43"
       x1="111.00709"
       y1="118.2905"
       x2="140.7944"
       y2="118.2905"
       gradientUnits="userSpaceOnUse"
       gradientTransform="translate(21.052238,51.866924)" /><linearGradient
       inkscape:collect="always"
       xlink:href="#linearGradient42"
       id="linearGradient44"
       x1="110.62926"
       y1="127.44552"
       x2="140.41658"
       y2="127.44552"
       gradientUnits="userSpaceOnUse"
       gradientTransform="translate(21.052238,51.866924)" /><linearGradient
       inkscape:collect="always"
       xlink:href="#linearGradient42"
       id="linearGradient45"
       x1="105.48447"
       y1="137.49544"
       x2="135.27177"
       y2="137.49544"
       gradientUnits="userSpaceOnUse"
       gradientTransform="translate(21.052238,51.866924)" /></defs><g
     inkscape:label="Layer 1"
     inkscape:groupmode="layer"
     id="layer1"
     transform="translate(-50.018092,-32.260314)"><g
       style="color:#000000;fill:none;stroke-width:0.596146;stroke-dasharray:none"
       id="g1"
       transform="matrix(7.5484926,0,0,7.5484926,46.655064,-8.6830094)"><path
         d="M 13.974749,6.4869338 C 10.770921,5.8189097 10.362686,7.7768026 10.158567,8.7557476 9.2686166,8.5701896 7.3866574,8.6885376 6.9784211,10.646427 c -0.4082366,1.957893 1.2696047,2.818491 2.159554,3.004052 l 6.4076259,1.336042 c 0.889961,0.185559 2.771939,0.06722 3.180176,-1.890674 0.408236,-1.957891 -1.269625,-2.818492 -2.159584,-3.004057 0.204119,-0.9789454 0.612353,-2.9368384 -2.591444,-3.6048562 z"
         stroke="#000000"
         stroke-width="0.0525767"
         stroke-linejoin="round"
         data-darkreader-inline-stroke=""
         id="path2"
         style="stroke-width:0.596146;stroke-dasharray:none" /></g><g
       style="color:#000000;fill:none;stroke-width:0.437173;stroke-dasharray:none"
       id="g3"
       transform="matrix(7.5484926,0,0,7.5484926,48.641686,1.7467565)"><path
         d="m 2.6450326,8.5961991 c -1.626078,0.490058 -1.337351,1.4710209 -1.192989,1.9615019 -0.451686,0.136126 -1.2828784,0.653621 -0.9941531,1.634582 0.2887262,0.980963 1.2642821,0.953951 1.7159691,0.817824 l 3.252139,-0.98011 c 0.451691,-0.13613 1.282892,-0.653629 0.994168,-1.634588 -0.288726,-0.9809619 -1.264292,-0.9539459 -1.715984,-0.8178179 -0.144362,-0.490482 -0.433089,-1.471444 -2.05915,-0.981392 z"
         stroke="#000000"
         stroke-width="0.0525767"
         stroke-linejoin="round"
         data-darkreader-inline-stroke=""
         id="path3"
         style="stroke-width:0.437173;stroke-dasharray:none" /></g><rect
       style="fill:url(#linearGradient43);fill-opacity:1;stroke:none;stroke-width:1.00897;stroke-linecap:round;stroke-linejoin:round;stroke-miterlimit:1;stroke-dasharray:none;stroke-opacity:1;paint-order:stroke fill markers"
       id="rect9"
       width="28.778347"
       height="1.9773672"
       x="111.51157"
       y="117.30182"
       transform="matrix(0.89841558,-0.43914628,0.59969689,0.80022724,0,0)" /><rect
       style="fill:url(#linearGradient45);fill-opacity:1;stroke:none;stroke-width:1.00897;stroke-linecap:round;stroke-linejoin:round;stroke-miterlimit:1;stroke-dasharray:none;stroke-opacity:1;paint-order:stroke fill markers"
       id="rect10"
       width="28.778347"
       height="1.9773672"
       x="105.98895"
       y="136.50674"
       transform="matrix(0.89841558,-0.43914628,0.59969689,0.80022724,0,0)" /><rect
       style="fill:url(#linearGradient44);fill-opacity:1;stroke:none;stroke-width:1.00897;stroke-linecap:round;stroke-linejoin:round;stroke-miterlimit:1;stroke-dasharray:none;stroke-opacity:1;paint-order:stroke fill markers"
       id="rect11"
       width="28.778347"
       height="1.9773672"
       x="111.13374"
       y="126.45683"
       transform="matrix(0.89841558,-0.43914628,0.59969689,0.80022724,0,0)" /><rect
       style="fill:url(#linearGradient37);stroke:none;stroke-width:1.02538;stroke-linecap:round;stroke-linejoin:round;stroke-miterlimit:1;stroke-dasharray:none;stroke-opacity:1;paint-order:stroke fill markers"
       id="rect12"
       width="17.381636"
       height="1.5472589"
       x="56.364349"
       y="113.52618"
       transform="matrix(0.75576104,-0.65484751,0.38939302,0.9210717,0,0)" /><rect
       style="fill:url(#linearGradient36);stroke:none;stroke-width:1.02538;stroke-linecap:round;stroke-linejoin:round;stroke-miterlimit:1;stroke-dasharray:none;stroke-opacity:1;paint-order:stroke fill markers"
       id="rect13"
       width="17.381636"
       height="1.5472589"
       x="61.466774"
       y="120.45827"
       transform="matrix(0.75576104,-0.65484751,0.38939302,0.9210717,0,0)" /><rect
       style="fill:url(#linearGradient32);fill-opacity:1;stroke:none;stroke-width:1.02538;stroke-linecap:round;stroke-linejoin:round;stroke-miterlimit:1;stroke-dasharray:none;stroke-opacity:1;paint-order:stroke fill markers"
       id="rect14"
       width="17.381636"
       height="1.5472589"
       x="53.711739"
       y="106.04813"
       transform="matrix(0.75576104,-0.65484751,0.38939302,0.9210717,0,0)" /><rect
       style="fill:url(#linearGradient29);stroke:none;stroke-width:1;stroke-linecap:round;stroke-linejoin:round;stroke-miterlimit:1;stroke-dasharray:none;stroke-opacity:1;paint-order:stroke fill markers"
       id="rect15"
       width="33.441471"
       height="2.152174"
       x="84.620834"
       y="134.35637"
       transform="rotate(-22.321456)" /><rect
       style="fill:url(#linearGradient28);stroke:none;stroke-width:1;stroke-linecap:round;stroke-linejoin:round;stroke-miterlimit:1;stroke-dasharray:none;stroke-opacity:1;paint-order:stroke fill markers"
       id="rect16"
       width="33.441471"
       height="2.152174"
       x="84.125854"
       y="142.40228"
       transform="rotate(-22.321456)" /><rect
       style="fill:url(#linearGradient27);stroke:none;stroke-width:1;stroke-linecap:round;stroke-linejoin:round;stroke-miterlimit:1;stroke-dasharray:none;stroke-opacity:1;paint-order:stroke fill markers"
       id="rect18"
       width="33.441471"
       height="2.152174"
       x="83.852837"
       y="148.8866"
       transform="rotate(-22.321456)" /><rect
       style="fill:url(#linearGradient30);fill-opacity:1;stroke:none;stroke-width:1;stroke-linecap:round;stroke-linejoin:round;stroke-miterlimit:1;stroke-dasharray:none;stroke-opacity:1;paint-order:stroke fill markers"
       id="rect29"
       width="33.441471"
       height="2.152174"
       x="81.83268"
       y="154.67877"
       transform="rotate(-22.321456)" /><g
       style="clip-rule:evenodd;stroke-width:2.00888;stroke-miterlimit:10"
       id="g2"
       transform="matrix(-0.12406299,0.0442138,0.04421219,0.1240675,126.41148,65.472406)"><g
         id="g16"
         style="stroke-width:2.00888"><g
           id="g13"
           style="stroke-width:2.00888"><path
             d="m 505.31,181.05 c -1.58,-4.2 -6.49,-14.08 -8.32,-18.17 C 449.36,56.48 365.11,33.35 270.71,34.07 166.8,34.87 83.37,68.66 37.47,165.56 c -16.8,35.47 -20.98,76.21 -21.13,115.46 -0.26,65.47 13,109.91 40.84,159.78 3.3,5.92 36.7,68.46 86.78,68.46 59.05,0 158.87,0 260.93,0 34.53,0 52.52,0 101.86,0 5.58,0 17.83,0 19.51,0 22.91,0 36.21,-98.99 27.23,-133.6 l -4.21,-15.99 c -64.14,0 -100.09,0 -152.68,0 -73.95,0 -98.05,-58.32 -98.64,-87.85 -0.83,-41.55 22.12,-81.84 88.27,-88.06 z m -0.63,-0.9"
             fill="#ffffff"
             id="Graphic 4 (1)"
             comp-op="src-over"
             style="stroke-width:2.00888" /><g
             id="g12"
             style="stroke-width:2.00888"><g
               id="g9"
               style="stroke-width:2.00888"><path
                 d="M 461.31,104.41 H 78.64 c 3.31,-3.51 6.12,-7.58 9.93,-10.54 27.09,-21.1 67.13,-59.79 180.54,-60.29 139.06,-0.61 164.31,48.81 183.49,60.97 z m 1,0"
                 fill="#ff0000"
                 id="Graphic 28"
                 style="stroke-width:2.00888" /><path
                 d="M 106.8,496.24 84.45,480.75 h 460.82 l -8.07,18.93"
                 fill="#ff0000"
                 id="Graphic 32"
                 style="stroke-width:2.00888" /><path
                 d="M 544.47,475 H 83.3"
                 fill="#ff0000"
                 stroke="#ff0000"
                 stroke-width="12.3344"
                 stroke-linecap="round"
                 stroke-linejoin="round"
                 id="Graphic 35" /><path
                 d="M 463.59,111.29 H 73.21"
                 fill="#ff0000"
                 stroke="#ff0000"
                 stroke-width="11.3501"
                 stroke-linecap="round"
                 stroke-linejoin="round"
                 id="path9" /></g><g
               id="g11"
               style="stroke-width:2.00888"><path
                 d="M 362.65,181.7 H 177.76 c -2.97,0 -7.9,0 -8.41,0 -36.66,0.49 -68.04,40.48 -66.07,102.1 2.32,72.74 45.31,113.62 97.3,113.62 h 353.74 c -0.49,-7.25 -5.64,-28.56 -8.66,-35.5 l -2.58,-6.22 c -60.11,0 -108.4,-0.51 -168.51,-0.51 -35.8,0 -70.35,-31.89 -75.36,-70.16 -3.33,-25.42 -2.59,-64.24 49.56,-94.07 z m 0,0"
                 fill="#ffffff"
                 stroke="#ff0000"
                 stroke-width="10.7675"
                 id="Graphic 29" /><path
                 d="M 364.46,188.48 H 182.6 c -2.8,-0.14 -5.59,-0.42 -8.4,-0.42 -38.3,0 -66.79,38.4 -64.86,96.22 2.28,68.26 44.57,106.62 95.7,106.62 h 347.95 c -0.48,-6.8 -0.97,-13.6 -1.46,-20.4 l -8.59,-18.74 c -59.13,0 -111.26,0 -170.38,0 -35.22,0 -66.71,-25.99 -72,-61.85 -4.52,-30.55 -8.87,-62.1 49.75,-93.71 z m 0,0"
                 fill="#ff0000"
                 stroke="#ff0000"
                 stroke-width="4.84137"
                 id="path10" /><path
                 d="M 298.06,251.77 H 110.29 l -2.86,36.74 8.65,43.69 h 207.64 l -16.01,-23.27 -9.32,-31.31 z m 0,0"
                 fill="#ffffff"
                 id="Graphic 30"
                 style="stroke-width:2.00888" /><path
                 d="M 364.64,187.87 H 182.77 c -2.8,-0.14 -5.59,-0.41 -8.39,-0.41 -38.31,0 -66.8,38.4 -64.87,96.22 2.28,68.25 44.57,106.61 95.71,106.61 h 347.95 c -0.49,-6.8 -0.97,-13.59 -1.46,-20.39 l -8.6,-18.75 c -59.13,0 -111.25,0 -170.38,0 -35.21,0 -66.7,-25.99 -72,-61.85 -4.51,-30.55 -8.87,-62.1 49.76,-93.71 z m 0,0"
                 stroke="#ff0000"
                 stroke-width="4.84137"
                 fill="none"
                 id="path11" /></g></g></g><path
           d="M 504.3,179.2 C 502.72,175 497.81,165.12 495.98,161.03 448.35,54.64 364.1,31.5 269.7,32.23 165.79,33.02 82.36,66.81 36.46,163.71 c -16.8,35.47 -20.98,76.21 -21.13,115.46 -0.26,65.48 13,109.91 40.84,159.78 3.3,5.92 36.7,68.46 86.78,68.46 59.04,0 158.86,0 260.93,0 34.53,0 52.52,0 101.85,0 5.59,0 17.84,0 19.52,0 22.91,0 36.21,-98.98 27.23,-133.59 l -4.21,-16 c -64.14,0 -100.09,0 -152.68,0 -73.95,0 -98.05,-58.32 -98.64,-87.85 -0.83,-41.55 22.12,-81.84 88.26,-88.06 z m -0.63,-0.9"
           fill="url(#def1)"
           id="Graphic 4 (2)"
           comp-op="darken"
           style="fill:url(#def1);stroke-width:2.00888" /><path
           d="m 504.93,177.11 c -1.58,-4.2 -6.48,-14.08 -8.32,-18.17 C 448.98,52.55 364.73,29.41 270.33,30.14 166.42,30.93 82.99,64.72 37.09,161.62 c -16.8,35.47 -20.98,76.21 -21.13,115.46 -0.26,65.48 13,109.91 40.84,159.78 3.3,5.92 36.71,68.46 86.78,68.46 59.05,0 158.87,0 260.93,0 34.53,0 52.52,0 101.86,0 5.58,0 17.83,0 19.51,0 22.91,0 36.21,-98.98 27.23,-133.59 l -4.21,-16 c -64.14,0 -100.09,0 -152.68,0 -73.95,0 -98.05,-58.32 -98.64,-87.85 -0.83,-41.55 22.12,-81.84 88.27,-88.06 z m -0.63,-0.9"
           fill="url(#def2)"
           id="path13"
           comp-op="lighten"
           style="fill:url(#def2);stroke-width:2.00888" /><g
           id="g14"
           style="stroke-width:2.00888"><path
             d="m 504.78,180.75 c -1.58,-4.19 -6.49,-14.08 -8.32,-18.17 C 448.83,56.19 364.58,33.06 270.18,33.78 166.27,34.58 82.84,68.37 36.94,165.27 c -16.8,35.46 -20.98,76.21 -21.13,115.45 -0.26,65.48 13,109.92 40.84,159.79 3.3,5.92 36.7,68.46 86.78,68.46 59.04,0 158.87,0 260.93,0 34.53,0 52.52,0 101.85,0 5.59,0 17.84,0 19.52,0 22.91,0 36.21,-98.99 27.23,-133.6 l -4.21,-15.99 c -64.14,0 -100.09,0 -152.68,0 -73.95,0 -98.05,-58.33 -98.64,-87.85 -0.83,-41.56 22.12,-81.84 88.27,-88.06 z m -0.63,-0.89"
             stroke="#000000"
             stroke-width="6.02661"
             fill="none"
             id="Graphic 4" /><path
             d="m 377.72,176.48 c -42.07,0 -89.18,36.71 -88.43,88.56 0.79,55.06 42.39,97.53 86.09,97.53 57.39,0 117.79,0 175.19,0 l -3.03,-11.81 c -1.08,-4.15 -4.39,-3.82 -7.07,-3.81 -53.19,0.15 -106.4,0.29 -159.59,0.44 -55.19,-0.29 -76.46,-44.21 -76.66,-82.63 -0.21,-42.65 41.37,-72.56 78.13,-72.56 42.31,0 120.46,0 120.81,0 5.77,-0.02 5.58,-2.27 5.75,-4.91 l -4.41,-10.81 c -42.26,0 -84.51,0 -126.78,0 z m -280.06,316.75 4.97,4.09 c 19.42,12.34 31.48,14.04 41.5,14.04 4.45,0 252.16,0 381.5,0 6.36,0 18.16,-18.45 12.81,-18.13 -7.42,0.44 -295.52,0 -440.78,0 z m 0,0"
             fill="url(#def3)"
             id="Graphic 11"
             style="fill:url(#def3);stroke-width:2.00888" /></g><g
           id="g15"
           style="stroke-width:2.00888"><path
             d="M 551.79,351.99 C 540.54,268.8 504.02,164.89 498.31,164.2 c -8.9,-1.08 -147.27,-1.1 -197.02,-2.38 -86.38,-2.21 -49.83,68.89 -29.74,119.83 27.1,68.71 66.26,93.22 95.06,93.22 63.4,0 130.32,-1 193.72,-1 z M 509.16,181.05"
             fill="url(#def4)"
             stroke="#000000"
             stroke-width="5.20296"
             id="Graphic 42"
             opacity="0.61"
             style="fill:url(#def4)" /><circle
             cx="273.84"
             cy="195.08"
             fill="#000000"
             id="Oval 43"
             r="13.57"
             style="stroke-width:2.00888" /></g></g></g></g></svg>
