<?xml version="1.0" encoding="UTF-8" standalone="no"?>
<!-- Created with Inkscape (http://www.inkscape.org/) -->

<svg
   width="120.43826mm"
   height="126.39954mm"
   viewBox="0 0 120.43826 126.39954"
   version="1.1"
   id="svg1"
   xml:space="preserve"
   inkscape:version="1.4 (e7c3feb100, 2024-10-09)"
   sodipodi:docname="f1_cloud_logo.svg"
   xmlns:inkscape="http://www.inkscape.org/namespaces/inkscape"
   xmlns:sodipodi="http://sodipodi.sourceforge.net/DTD/sodipodi-0.dtd"
   xmlns="http://www.w3.org/2000/svg"
   xmlns:svg="http://www.w3.org/2000/svg"><sodipodi:namedview
     id="namedview1"
     pagecolor="#1f1f1f"
     bordercolor="#000000"
     borderopacity="0.25"
     inkscape:showpageshadow="2"
     inkscape:pageopacity="0.0"
     inkscape:pagecheckerboard="true"
     inkscape:deskcolor="#d1d1d1"
     inkscape:document-units="mm"
     inkscape:zoom="1.1300911"
     inkscape:cx="288.47232"
     inkscape:cy="281.83569"
     inkscape:window-width="1884"
     inkscape:window-height="1010"
     inkscape:window-x="0"
     inkscape:window-y="0"
     inkscape:window-maximized="1"
     inkscape:current-layer="layer1"
     showborder="true" /><defs
     id="defs1"><radialGradient
       id="def1"
       cx="0"
       cy="0"
       r="1"
       gradientUnits="userSpaceOnUse"
       gradientTransform="matrix(-443.88453,25.932325,-15.676277,459.80356,159.36772,728.72034)"><stop
         offset="0.78"
         stop-color="#FFFFFF"
         stop-opacity="0.00"
         id="stop1" /><stop
         offset="1.00"
         stop-color="#000000"
         stop-opacity="0.50"
         id="stop2" /></radialGradient><radialGradient
       id="def2"
       cx="0"
       cy="0"
       r="1"
       gradientUnits="userSpaceOnUse"
       gradientTransform="matrix(-644.03731,229.51499,-57.643197,698.44904,331.26099,380.60781)"><stop
         offset="0.03"
         stop-color="#FFFFFF"
         stop-opacity="0.95"
         id="stop3" /><stop
         offset="0.15"
         stop-color="#E6E6E6"
         stop-opacity="0.00"
         id="stop4" /></radialGradient><linearGradient
       id="def3"
       x1="-0.69"
       y1="0.2"
       x2="0.80000001"
       y2="0.2"
       gradientUnits="userSpaceOnUse"
       gradientTransform="matrix(-387.53814,138.10655,99.238397,278.47097,97.046684,553.52439)"><stop
         offset="0.00"
         stop-color="#000000"
         id="stop5" /><stop
         offset="0.49"
         stop-color="#4C4C4C"
         id="stop6" /><stop
         offset="1.00"
         stop-color="#000000"
         id="stop7" /></linearGradient><linearGradient
       id="def4"
       x1="489.82999"
       y1="302.45999"
       x2="386.97"
       y2="329.76001"
       gradientUnits="userSpaceOnUse"
       gradientTransform="matrix(-1.4789444,0.52704984,0.52707606,1.479018,433.63694,158.23044)"><stop
         offset="0.35"
         stop-color="#AAAAAA"
         id="stop8" /><stop
         offset="0.98"
         stop-color="#004080"
         id="stop9" /></linearGradient></defs><g
     inkscape:label="Layer 1"
     inkscape:groupmode="layer"
     id="layer1"
     transform="translate(-43.696699,-27.25812)"><g
       style="color:#000000;fill:none;stroke:#ffffff;stroke-width:0.488168;stroke-dasharray:none;stroke-opacity:1"
       id="g1"
       transform="matrix(4.5328805,0,0,4.4805666,58.481967,6.7401829)"><path
         d="M 13.974749,6.4869338 C 10.770921,5.8189097 10.362686,7.7768026 10.158567,8.7557476 9.2686166,8.5701896 7.3866574,8.6885376 6.9784211,10.646427 c -0.4082366,1.957893 1.2696047,2.818491 2.159554,3.004052 l 6.4076259,1.336042 c 0.889961,0.185559 2.771939,0.06722 3.180176,-1.890674 0.408236,-1.957891 -1.269625,-2.818492 -2.159584,-3.004057 0.204119,-0.9789454 0.612353,-2.9368384 -2.591444,-3.6048562 z"
         stroke="#000000"
         stroke-width="0.0525767"
         stroke-linejoin="round"
         data-darkreader-inline-stroke=""
         id="path2"
         style="stroke:#ffffff;stroke-width:0.488168;stroke-dasharray:none;stroke-opacity:1" /></g><g
       style="color:#000000;fill:none;stroke:#ffffff;stroke-width:0.437173;stroke-dasharray:none;stroke-opacity:1"
       id="g3"
       transform="matrix(7.5484926,0,0,7.5484926,42.320293,-21.197559)"><path
         d="m 2.6450326,8.5961991 c -1.626078,0.490058 -1.337351,1.4710209 -1.192989,1.9615019 -0.451686,0.136126 -1.2828784,0.653621 -0.9941531,1.634582 0.2887262,0.980963 1.2642821,0.953951 1.7159691,0.817824 l 3.252139,-0.98011 c 0.451691,-0.13613 1.282892,-0.653629 0.994168,-1.634588 -0.288726,-0.9809619 -1.264292,-0.9539459 -1.715984,-0.8178179 -0.144362,-0.490482 -0.433089,-1.471444 -2.05915,-0.981392 z"
         stroke="#000000"
         stroke-width="0.0525767"
         stroke-linejoin="round"
         data-darkreader-inline-stroke=""
         id="path3"
         style="stroke:#ffffff;stroke-width:0.437173;stroke-dasharray:none;stroke-opacity:1" /></g><rect
       style="opacity:1;fill:#ffffff;fill-opacity:1;stroke:none;stroke-width:1.02538;stroke-linecap:round;stroke-linejoin:round;stroke-miterlimit:1;stroke-dasharray:none;stroke-opacity:1;paint-order:stroke fill markers"
       id="rect14"
       width="17.381636"
       height="1.5472589"
       x="54.952248"
       y="83.79895"
       transform="matrix(0.75576104,-0.65484751,0.38939302,0.9210717,0,0)" /><rect
       style="fill:#ffffff;fill-opacity:1;stroke:none;stroke-width:1.02538;stroke-linecap:round;stroke-linejoin:round;stroke-miterlimit:1;stroke-dasharray:none;stroke-opacity:1;paint-order:stroke fill markers"
       id="rect14-9"
       width="17.381636"
       height="1.5472589"
       x="59.486103"
       y="91.279579"
       transform="matrix(0.75576104,-0.65484751,0.38939302,0.9210717,0,0)" /><g
       style="clip-rule:evenodd;stroke-width:1.57009;stroke-miterlimit:10"
       id="g2"
       transform="matrix(-0.15874031,0.05656729,0.05657011,0.1587324,124.96198,42.65319)"><g
         id="g16"
         style="stroke-width:1.57009"><g
           id="g13"
           style="stroke-width:1.57009"><path
             d="m 505.31,181.05 c -1.58,-4.2 -6.49,-14.08 -8.32,-18.17 C 449.36,56.48 365.11,33.35 270.71,34.07 166.8,34.87 83.37,68.66 37.47,165.56 c -16.8,35.47 -20.98,76.21 -21.13,115.46 -0.26,65.47 13,109.91 40.84,159.78 3.3,5.92 36.7,68.46 86.78,68.46 59.05,0 158.87,0 260.93,0 34.53,0 52.52,0 101.86,0 5.58,0 17.83,0 19.51,0 22.91,0 36.21,-98.99 27.23,-133.6 l -4.21,-15.99 c -64.14,0 -100.09,0 -152.68,0 -73.95,0 -98.05,-58.32 -98.64,-87.85 -0.83,-41.55 22.12,-81.84 88.27,-88.06 z m -0.63,-0.9"
             fill="#ffffff"
             id="Graphic 4 (1)"
             comp-op="src-over"
             style="stroke-width:1.57009" /><g
             id="g12"
             style="stroke-width:1.57009"><g
               id="g9"
               style="stroke-width:1.57009"><path
                 d="M 461.31,104.41 H 78.64 c 3.31,-3.51 6.12,-7.58 9.93,-10.54 27.09,-21.1 67.13,-59.79 180.54,-60.29 139.06,-0.61 164.31,48.81 183.49,60.97 z m 1,0"
                 fill="#ff0000"
                 id="Graphic 28"
                 style="stroke-width:1.57009" /><path
                 d="M 106.8,496.24 84.45,480.75 h 460.82 l -8.07,18.93"
                 fill="#ff0000"
                 id="Graphic 32"
                 style="stroke-width:1.57009" /><path
                 d="M 544.47,475 H 83.3"
                 fill="#ff0000"
                 stroke="#ff0000"
                 stroke-width="9.64032"
                 stroke-linecap="round"
                 stroke-linejoin="round"
                 id="Graphic 35" /><path
                 d="M 463.59,111.29 H 73.21"
                 fill="#ff0000"
                 stroke="#ff0000"
                 stroke-width="8.87101"
                 stroke-linecap="round"
                 stroke-linejoin="round"
                 id="path9" /></g><g
               id="g11"
               style="stroke-width:1.57009"><path
                 d="M 362.65,181.7 H 177.76 c -2.97,0 -7.9,0 -8.41,0 -36.66,0.49 -68.04,40.48 -66.07,102.1 2.32,72.74 45.31,113.62 97.3,113.62 h 353.74 c -0.49,-7.25 -5.64,-28.56 -8.66,-35.5 l -2.58,-6.22 c -60.11,0 -108.4,-0.51 -168.51,-0.51 -35.8,0 -70.35,-31.89 -75.36,-70.16 -3.33,-25.42 -2.59,-64.24 49.56,-94.07 z m 0,0"
                 fill="#ffffff"
                 stroke="#ff0000"
                 stroke-width="8.41567"
                 id="Graphic 29" /><path
                 d="M 364.46,188.48 H 182.6 c -2.8,-0.14 -5.59,-0.42 -8.4,-0.42 -38.3,0 -66.79,38.4 -64.86,96.22 2.28,68.26 44.57,106.62 95.7,106.62 h 347.95 c -0.48,-6.8 -0.97,-13.6 -1.46,-20.4 l -8.59,-18.74 c -59.13,0 -111.26,0 -170.38,0 -35.22,0 -66.71,-25.99 -72,-61.85 -4.52,-30.55 -8.87,-62.1 49.75,-93.71 z m 0,0"
                 fill="#ff0000"
                 stroke="#ff0000"
                 stroke-width="3.78392"
                 id="path10" /><path
                 d="M 298.06,251.77 H 110.29 l -2.86,36.74 8.65,43.69 h 207.64 l -16.01,-23.27 -9.32,-31.31 z m 0,0"
                 fill="#ffffff"
                 id="Graphic 30"
                 style="stroke-width:1.57009" /><path
                 d="M 364.64,187.87 H 182.77 c -2.8,-0.14 -5.59,-0.41 -8.39,-0.41 -38.31,0 -66.8,38.4 -64.87,96.22 2.28,68.25 44.57,106.61 95.71,106.61 h 347.95 c -0.49,-6.8 -0.97,-13.59 -1.46,-20.39 l -8.6,-18.75 c -59.13,0 -111.25,0 -170.38,0 -35.21,0 -66.7,-25.99 -72,-61.85 -4.51,-30.55 -8.87,-62.1 49.76,-93.71 z m 0,0"
                 stroke="#ff0000"
                 stroke-width="3.78392"
                 fill="none"
                 id="path11" /></g></g></g><path
           d="M 504.3,179.2 C 502.72,175 497.81,165.12 495.98,161.03 448.35,54.64 364.1,31.5 269.7,32.23 165.79,33.02 82.36,66.81 36.46,163.71 c -16.8,35.47 -20.98,76.21 -21.13,115.46 -0.26,65.48 13,109.91 40.84,159.78 3.3,5.92 36.7,68.46 86.78,68.46 59.04,0 158.86,0 260.93,0 34.53,0 52.52,0 101.85,0 5.59,0 17.84,0 19.52,0 22.91,0 36.21,-98.98 27.23,-133.59 l -4.21,-16 c -64.14,0 -100.09,0 -152.68,0 -73.95,0 -98.05,-58.32 -98.64,-87.85 -0.83,-41.55 22.12,-81.84 88.26,-88.06 z m -0.63,-0.9"
           fill="url(#def1)"
           id="Graphic 4 (2)"
           comp-op="darken"
           style="fill:url(#def1);stroke-width:1.57009" /><path
           d="m 504.93,177.11 c -1.58,-4.2 -6.48,-14.08 -8.32,-18.17 C 448.98,52.55 364.73,29.41 270.33,30.14 166.42,30.93 82.99,64.72 37.09,161.62 c -16.8,35.47 -20.98,76.21 -21.13,115.46 -0.26,65.48 13,109.91 40.84,159.78 3.3,5.92 36.71,68.46 86.78,68.46 59.05,0 158.87,0 260.93,0 34.53,0 52.52,0 101.86,0 5.58,0 17.83,0 19.51,0 22.91,0 36.21,-98.98 27.23,-133.59 l -4.21,-16 c -64.14,0 -100.09,0 -152.68,0 -73.95,0 -98.05,-58.32 -98.64,-87.85 -0.83,-41.55 22.12,-81.84 88.27,-88.06 z m -0.63,-0.9"
           fill="url(#def2)"
           id="path13"
           comp-op="lighten"
           style="fill:url(#def2);stroke-width:1.57009" /><g
           id="g14"
           style="stroke-width:1.57009"><path
             d="m 504.78,180.75 c -1.58,-4.19 -6.49,-14.08 -8.32,-18.17 C 448.83,56.19 364.58,33.06 270.18,33.78 166.27,34.58 82.84,68.37 36.94,165.27 c -16.8,35.46 -20.98,76.21 -21.13,115.45 -0.26,65.48 13,109.92 40.84,159.79 3.3,5.92 36.7,68.46 86.78,68.46 59.04,0 158.87,0 260.93,0 34.53,0 52.52,0 101.85,0 5.59,0 17.84,0 19.52,0 22.91,0 36.21,-98.99 27.23,-133.6 l -4.21,-15.99 c -64.14,0 -100.09,0 -152.68,0 -73.95,0 -98.05,-58.33 -98.64,-87.85 -0.83,-41.56 22.12,-81.84 88.27,-88.06 z m -0.63,-0.89"
             stroke="#000000"
             stroke-width="4.71028"
             fill="none"
             id="Graphic 4" /><path
             d="m 377.72,176.48 c -42.07,0 -89.18,36.71 -88.43,88.56 0.79,55.06 42.39,97.53 86.09,97.53 57.39,0 117.79,0 175.19,0 l -3.03,-11.81 c -1.08,-4.15 -4.39,-3.82 -7.07,-3.81 -53.19,0.15 -106.4,0.29 -159.59,0.44 -55.19,-0.29 -76.46,-44.21 -76.66,-82.63 -0.21,-42.65 41.37,-72.56 78.13,-72.56 42.31,0 120.46,0 120.81,0 5.77,-0.02 5.58,-2.27 5.75,-4.91 l -4.41,-10.81 c -42.26,0 -84.51,0 -126.78,0 z m -280.06,316.75 4.97,4.09 c 19.42,12.34 31.48,14.04 41.5,14.04 4.45,0 252.16,0 381.5,0 6.36,0 18.16,-18.45 12.81,-18.13 -7.42,0.44 -295.52,0 -440.78,0 z m 0,0"
             fill="url(#def3)"
             id="Graphic 11"
             style="fill:url(#def3);stroke-width:1.57009" /></g><g
           id="g15"
           style="stroke-width:1.57009"><path
             d="M 551.79,351.99 C 540.54,268.8 504.02,164.89 498.31,164.2 c -8.9,-1.08 -147.27,-1.1 -197.02,-2.38 -86.38,-2.21 -49.83,68.89 -29.74,119.83 27.1,68.71 66.26,93.22 95.06,93.22 63.4,0 130.32,-1 193.72,-1 z M 509.16,181.05"
             fill="url(#def4)"
             stroke="#000000"
             stroke-width="4.06652"
             id="Graphic 42"
             opacity="0.61"
             style="fill:url(#def4)" /><circle
             cx="273.84"
             cy="195.08"
             fill="#000000"
             id="Oval 43"
             r="13.57"
             style="stroke-width:1.57009" /></g></g></g><rect
       style="fill:#ffffff;fill-opacity:1;stroke:none;stroke-width:1.00606;stroke-linecap:round;stroke-linejoin:round;stroke-miterlimit:1;stroke-dasharray:none;stroke-opacity:1;paint-order:stroke fill markers"
       id="rect15-93"
       width="24.76062"
       height="1.862221"
       x="115.63284"
       y="104.84982"
       transform="matrix(0.89011386,-0.45573822,0.31271761,0.94984614,0,0)" /><rect
       style="fill:#ffffff;fill-opacity:1;stroke:none;stroke-width:1.00606;stroke-linecap:round;stroke-linejoin:round;stroke-miterlimit:1;stroke-dasharray:none;stroke-opacity:1;paint-order:stroke fill markers"
       id="rect15-93-4"
       width="24.76062"
       height="1.862221"
       x="115.36633"
       y="95.930618"
       transform="matrix(0.89011386,-0.45573822,0.31271761,0.94984614,0,0)" /><rect
       style="fill:#ffffff;fill-opacity:1;stroke:none;stroke-width:1.00606;stroke-linecap:round;stroke-linejoin:round;stroke-miterlimit:1;stroke-dasharray:none;stroke-opacity:1;paint-order:stroke fill markers"
       id="rect15-93-8"
       width="24.76062"
       height="1.862221"
       x="119.62309"
       y="112.0329"
       transform="matrix(0.89011386,-0.45573822,0.31271761,0.94984614,0,0)" /></g></svg>
